<svg width="24" height="24" viewBox="0 0 24 24" fill="none" xmlns="http://www.w3.org/2000/svg">
<path d="M12 24C18.6274 24 24 18.6274 24 12C24 5.37258 18.6274 0 12 0C5.37258 0 0 5.37258 0 12C0 18.6274 5.37258 24 12 24Z" fill="#FF8311"/>
<path d="M16.9899 18.2527C16.9599 18.1334 16.2112 15.3334 11.9999 15.3334C7.78785 15.3334 7.03985 18.1334 7.00985 18.2527C6.99233 18.3231 6.99829 18.3972 7.02681 18.4639C7.05533 18.5306 7.10486 18.5861 7.16785 18.622C7.23113 18.6578 7.30429 18.6721 7.37639 18.6629C7.44849 18.6536 7.51566 18.6213 7.56785 18.5707C7.58052 18.558 8.87052 17.3334 11.9999 17.3334C15.1292 17.3334 16.4199 18.558 16.4319 18.57C16.4835 18.621 16.5503 18.6539 16.6222 18.6636C16.6941 18.6734 16.7672 18.6595 16.8305 18.624C16.8941 18.5881 16.9441 18.5324 16.9729 18.4653C17.0017 18.3982 17.0076 18.3235 16.9899 18.2527Z" fill="black"/>
<path d="M8.00016 11.3334C8.92064 11.3334 9.66683 10.2887 9.66683 9.00008C9.66683 7.71142 8.92064 6.66675 8.00016 6.66675C7.07969 6.66675 6.3335 7.71142 6.3335 9.00008C6.3335 10.2887 7.07969 11.3334 8.00016 11.3334Z" fill="black"/>
<path d="M16.0002 11.3334C16.9206 11.3334 17.6668 10.2887 17.6668 9.00008C17.6668 7.71142 16.9206 6.66675 16.0002 6.66675C15.0797 6.66675 14.3335 7.71142 14.3335 9.00008C14.3335 10.2887 15.0797 11.3334 16.0002 11.3334Z" fill="black"/>
</svg>
