<svg width="24" height="24" viewBox="0 0 24 24" fill="none" xmlns="http://www.w3.org/2000/svg">
<path d="M24 12C24 18.6273 18.6273 24 12 24C5.37333 24 0 18.6273 0 12C0 5.37333 5.37333 0 12 0C18.6273 0 24 5.37333 24 12Z" fill="#F24E1E"/>
<path d="M16.99 19.9194C16.96 19.8 16.2113 17 12 17C7.78799 17 7.03999 19.8 7.00999 19.9194C6.99247 19.9897 6.99843 20.0639 7.02695 20.1306C7.05547 20.1973 7.105 20.2528 7.16799 20.2887C7.23133 20.3243 7.30444 20.3385 7.37648 20.3292C7.44853 20.32 7.51568 20.2878 7.56799 20.2374C7.58066 20.2247 8.87066 19 12 19C15.1293 19 16.42 20.2247 16.432 20.2367C16.4836 20.2877 16.5504 20.3206 16.6223 20.3303C16.6942 20.34 16.7673 20.3261 16.8307 20.2907C16.8942 20.2548 16.9442 20.199 16.973 20.1319C17.0018 20.0649 17.0078 19.9902 16.99 19.9194ZM10.4713 11.5287C8.30132 9.35871 4.81399 9.33337 4.66666 9.33337C4.495 9.34097 4.33288 9.41448 4.21407 9.5386C4.09525 9.66273 4.02889 9.8279 4.02881 9.99972C4.02872 10.1715 4.09492 10.3368 4.21361 10.461C4.3323 10.5853 4.49434 10.6589 4.66599 10.6667C4.68532 10.6667 5.94932 10.6814 7.32132 11.158C6.92599 11.5847 6.66666 12.2474 6.66666 13C6.66666 14.2894 7.41266 15.3334 8.33332 15.3334C9.25399 15.3334 9.99999 14.2894 9.99999 13C9.99999 12.884 9.98732 12.7734 9.97532 12.662C9.98399 12.662 9.99199 12.6667 9.99999 12.6667C10.132 12.667 10.2611 12.6281 10.3709 12.5549C10.4807 12.4817 10.5663 12.3775 10.6168 12.2556C10.6673 12.1336 10.6804 11.9994 10.6545 11.87C10.6286 11.7406 10.5649 11.6218 10.4713 11.5287ZM19.3333 9.33337C19.186 9.33337 15.6993 9.35871 13.5287 11.5287C13.4351 11.6218 13.3714 11.7406 13.3455 11.87C13.3196 11.9994 13.3327 12.1336 13.3832 12.2556C13.4337 12.3775 13.5193 12.4817 13.6291 12.5549C13.7389 12.6281 13.868 12.667 14 12.6667C14.0087 12.6667 14.016 12.662 14.024 12.662C14.0133 12.7734 14 12.884 14 13C14 14.2894 14.746 15.3334 15.6667 15.3334C16.5873 15.3334 17.3333 14.2894 17.3333 13C17.3333 12.2474 17.074 11.5847 16.6787 11.158C17.5353 10.8657 18.4301 10.7002 19.3347 10.6667C19.4222 10.6666 19.5089 10.6493 19.5897 10.6157C19.6706 10.5821 19.744 10.5329 19.8059 10.471C19.8677 10.409 19.9167 10.3355 19.9502 10.2545C19.9836 10.1736 20.0007 10.0869 20.0007 9.99937C20.0006 9.91183 19.9832 9.82515 19.9497 9.7443C19.9161 9.66345 19.8669 9.59001 19.8049 9.52816C19.743 9.46632 19.6694 9.41729 19.5885 9.38387C19.5076 9.35044 19.4209 9.33329 19.3333 9.33337Z" fill="black"/>
</svg>
